<svg id="Capa_1" enable-background="new 0 0 512 512" height="512" viewBox="0 0 512 512" width="512" xmlns="http://www.w3.org/2000/svg"><g><g><path d="m339.261 281.113c0 45.984-37.277 83.261-83.261 83.261s-83.261-37.277-83.261-83.261 83.261-133.488 83.261-133.488 83.261 87.504 83.261 133.488z" fill="#b2f0fb"/></g><g fill="#020288"><path d="m511.227 320.347-30.708-73.537c-1.197-2.867-3.658-5.014-6.661-5.812-3.003-.796-6.205-.155-8.667 1.741l-61.724 47.52c-2.822 2.173-4.276 5.684-3.815 9.216.46 3.533 2.766 6.553 6.051 7.93l10.499 4.4-2.761 7.12c-25.442 65.614-89.477 109.698-159.343 109.698-1.569 0-3.142-.021-4.674-.064-43.714-1.212-84.882-19.007-115.921-50.107-.095-.095-.19-.187-.288-.278-.09-.098-.182-.194-.275-.289-14.631-14.797-26.852-32.835-35.339-52.165-2.074-4.725-7.406-7.097-12.302-5.472l-53.115 17.603c-2.634.873-4.786 2.8-5.943 5.322-1.157 2.521-1.215 5.411-.158 7.976 12.353 30.02 30.83 57.933 53.432 80.721 46.122 46.502 107.431 72.384 172.631 72.877h.002c.627.004 1.247.007 1.874.007 105.106 0 198.784-67.289 233.104-167.439l1.629-4.752 11.957 1.553c3.546.46 7.066-1.006 9.235-3.847 2.17-2.84 2.658-6.624 1.28-9.922zm-27.996-8.668c-4.721-.615-9.206 2.178-10.748 6.674l-4.277 12.479c-31.55 92.066-117.624 153.923-214.185 153.923-.577 0-1.148-.003-1.726-.006-59.884-.453-116.202-24.234-158.581-66.962-18.288-18.439-33.642-40.538-44.812-64.406l34.255-11.353c9.125 18.35 21.253 35.416 35.415 49.772l.244.268c.259.284.533.553.823.805 34.637 34.559 80.514 54.328 129.228 55.678 1.716.048 3.476.072 5.23.072 78.058 0 149.586-49.216 177.989-122.467l6.28-16.195c1.959-5.052-.461-10.744-5.458-12.838l-3.608-1.512 37.777-29.084 19.01 45.523z"/><path d="m34.171 270.804c.913.264 1.846.393 2.773.393 2.182 0 4.332-.714 6.102-2.076l61.579-47.41c2.822-2.173 4.276-5.684 3.815-9.217-.46-3.532-2.766-6.553-6.051-7.93l-10.513-4.406 2.777-7.123c25.964-66.637 88.552-109.695 159.45-109.695 14.871 0 29.759 1.974 44.238 5.863 28.936 7.81 55.43 23.23 76.619 44.593 14.756 14.878 27.06 33.024 35.579 52.477 2.071 4.73 7.403 7.104 12.304 5.481l53.063-17.574c2.634-.872 4.787-2.799 5.944-5.321 1.158-2.522 1.216-5.411.16-7.977-12.357-30.033-30.839-57.955-53.446-80.749-46.114-46.494-107.41-72.377-172.608-72.882-.638-.004-1.258-.006-1.895-.006-105.087 0-198.761 67.276-233.097 167.41l-1.318 3.846-9.051-.541c-3.371-.202-6.611 1.31-8.623 4.019-2.012 2.708-2.523 6.249-1.357 9.416l26.945 73.253c1.099 2.987 3.553 5.273 6.611 6.156zm-8.125-71.885c4.494.262 8.6-2.49 10.056-6.741l3.782-11.038c31.564-92.049 117.635-153.895 214.177-153.895.594 0 1.173.003 1.754.006 59.87.463 116.178 24.246 158.551 66.967 18.293 18.443 33.652 40.552 44.824 64.431l-34.193 11.324c-9.204-18.548-21.477-35.784-35.836-50.262-23.668-23.864-53.27-41.09-85.618-49.821-16.183-4.347-32.815-6.551-49.438-6.551-79.204 0-149.107 48.058-178.084 122.432l-6.319 16.208c-1.972 5.055.447 10.759 5.451 12.855l3.639 1.525-37.16 28.609-16.969-46.132z"/></g></g></svg>