<svg id="Capa_1" enable-background="new 0 0 511.994 511.994" height="512" viewBox="0 0 511.994 511.994" width="512" xmlns="http://www.w3.org/2000/svg"><g><g><path d="m438.505 114.726c0-28.135-22.808-50.943-50.942-50.943-5.993 0-11.745 1.035-17.085 2.936-14.665-23.148-40.506-38.515-69.936-38.515-25.668 0-48.607 11.69-63.781 30.038-2.173-.318-4.396-.484-6.657-.484-25.11 0-45.473 20.326-45.533 45.422-1.103.623-2.187 1.277-3.25 1.959l12.021 37.429h238.109c-.188-.341-.379-.679-.574-1.016 4.836-7.791 7.628-16.982 7.628-26.826z" fill="#a4fcc4"/></g><g fill="#020288"><path d="m249.216 391.791c1.289.277 15.783 3.289 34.483 3.289 22.608 0 51.363-4.406 70.334-23.376 34.661-34.662 20.699-101.969 20.088-104.817-.826-3.847-3.831-6.853-7.679-7.679-2.848-.612-70.157-14.575-104.818 20.087s-20.698 101.97-20.087 104.818c.826 3.847 3.831 6.853 7.679 7.678zm26.551-98.354c21.612-21.611 63.809-18.076 79.97-15.766 2.974 20.16 4.098 59.947-15.846 79.89-17.167 17.168-47.322 18.469-67.1 17.118l47.039-47.038c3.905-3.905 3.905-10.237 0-14.142-3.904-3.905-10.234-3.905-14.143 0l-47.09 47.089c-1.359-21.264.861-50.842 17.17-67.151z"/><path d="m435.616 138.382h-233.114l-32.623-101.579c-9.427-29.348-42.181-44.838-71.213-32.576-10.686 4.514-19.636 12.514-25.35 22.609-7.386 13.048-8.928 28.203-4.373 42.384l22.515 70.105c-3.401 1.596-5.756 5.051-5.756 9.057v353.584c0 .008.001.096.003.249.066 5.453 4.539 9.825 9.992 9.779h.005 339.915c5.523 0 10-4.477 10-10v-353.612c-.001-5.523-4.478-10-10.001-10zm-287.745 313.222v-248.98c0-5.523-4.478-10-10-10s-10 4.477-10 10v248.98l-22.17 24.463v-317.685h64.341v317.686zm-57.819-413.677c4.029-7.842 10.872-13.646 19.266-16.341 17.335-5.566 35.954 4.006 41.518 21.333l30.659 95.462h-69.335l-24.175-75.277c-2.696-8.394-1.962-17.335 2.067-25.177zm28.208 454.066 19.611-21.64 19.612 21.64zm307.356 0h-235.574v-333.611h235.574z"/></g></g></svg>