<svg id="Capa_1" enable-background="new 0 0 512 512" height="512" viewBox="0 0 512 512" width="512" xmlns="http://www.w3.org/2000/svg"><g><g fill="#020288"><path d="m511.228 320.347-30.708-73.537c-1.197-2.867-3.659-5.014-6.662-5.812-3.001-.797-6.205-.154-8.667 1.741l-61.724 47.52c-2.823 2.173-4.276 5.684-3.816 9.216.46 3.533 2.765 6.553 6.051 7.93l10.499 4.4-2.761 7.119c-25.442 65.614-89.477 109.698-159.342 109.698-1.569 0-3.141-.021-4.674-.064-43.713-1.212-84.881-19.007-115.92-50.107-.095-.096-.192-.189-.292-.281-.089-.097-.179-.192-.272-.286-14.631-14.798-26.851-32.836-35.339-52.165-2.075-4.725-7.403-7.097-12.302-5.472l-53.115 17.603c-2.633.872-4.786 2.8-5.943 5.322-1.157 2.521-1.214 5.411-.159 7.976 12.355 30.021 30.831 57.933 53.432 80.721 46.122 46.502 107.43 72.384 172.631 72.877h.003c.627.004 1.247.007 1.873.007 105.106 0 198.784-67.289 233.105-167.439l1.628-4.751 11.957 1.553c3.547.46 7.066-1.006 9.236-3.847 2.17-2.84 2.658-6.623 1.281-9.922zm-27.997-8.668c-4.716-.62-9.207 2.177-10.748 6.674l-4.277 12.478c-31.55 92.066-117.625 153.923-214.185 153.923-.576 0-1.148-.003-1.725-.006-59.885-.453-116.204-24.234-158.582-66.962-18.288-18.439-33.642-40.538-44.811-64.406l34.254-11.353c9.127 18.351 21.253 35.416 35.417 49.773l.248.272c.257.282.531.549.819.8 34.637 34.558 80.514 54.328 129.228 55.678 1.716.048 3.476.072 5.23.072 78.058 0 149.586-49.216 177.989-122.467l6.28-16.195c1.959-5.052-.461-10.744-5.458-12.838l-3.608-1.512 37.778-29.084 19.01 45.523z"/><path d="m34.172 270.804c.912.264 1.846.393 2.773.393 2.182 0 4.332-.714 6.101-2.076l61.58-47.41c2.823-2.173 4.276-5.684 3.815-9.217-.46-3.532-2.766-6.553-6.051-7.93l-10.513-4.406 2.777-7.123c25.963-66.637 88.551-109.695 159.45-109.695 14.872 0 29.759 1.974 44.238 5.863 28.937 7.811 55.431 23.23 76.619 44.593 14.757 14.878 27.06 33.024 35.579 52.477 2.071 4.729 7.4 7.106 12.304 5.481l53.063-17.573c2.634-.873 4.787-2.8 5.944-5.321 1.157-2.522 1.215-5.411.16-7.977-12.356-30.031-30.837-57.954-53.446-80.749-46.115-46.495-107.41-72.378-172.609-72.882-.637-.004-1.258-.006-1.894-.006-105.087 0-198.761 67.276-233.096 167.409l-1.319 3.847-9.051-.541c-3.375-.197-6.611 1.311-8.623 4.019-2.012 2.708-2.523 6.249-1.358 9.416l26.945 73.253c1.099 2.986 3.554 5.272 6.612 6.155zm-8.126-71.885c4.482.262 8.599-2.489 10.055-6.74l3.784-11.039c31.563-92.049 117.634-153.895 214.177-153.895.593 0 1.173.002 1.753.006 59.87.463 116.178 24.246 158.551 66.967 18.294 18.445 33.653 40.553 44.825 64.431l-34.193 11.325c-9.204-18.549-21.476-35.784-35.836-50.262-23.668-23.863-53.271-41.09-85.619-49.821-16.181-4.347-32.815-6.551-49.438-6.551-79.204 0-149.107 48.058-178.084 122.432l-6.319 16.208c-1.971 5.055.448 10.758 5.452 12.855l3.638 1.525-37.16 28.609-16.969-46.132z"/></g><g><path d="m275.368 233.111 8.23-111.047-107.096 156.538h72.775l-15.068 111.334 101.29-159.049z" fill="#fff59b"/></g></g></svg>