<svg id="Capa_1" enable-background="new 0 0 512 512" height="512" viewBox="0 0 512 512" width="512" xmlns="http://www.w3.org/2000/svg"><g><g><circle cx="256" cy="323.552" fill="#b2f0fb" r="114.277"/></g><g fill="#020288"><path d="m307.632 307.76c3.62-.338 6.926-2.644 8.367-6.253 2.047-5.129-.452-10.947-5.582-12.994l-22.929-9.149c-3.121-1.246-6.662-.839-9.421 1.082s-4.368 5.101-4.282 8.461l.631 24.679c.14 5.434 4.588 9.745 9.992 9.745.087 0 .174-.001.261-.003 2.829-.072 5.353-1.313 7.123-3.248l27.088 41.396c.758 1.157.483 2.2.121 2.871-.363.671-1.086 1.471-2.468 1.471h-8.636c-5.522 0-10 4.477-10 10s4.478 10 10 10h8.636c8.386 0 16.072-4.582 20.061-11.958 3.988-7.376 3.613-16.318-.979-23.335z"/><path d="m282.115 367.467-20.611-13.586c-4.613-3.042-10.815-1.765-13.854 2.846-1.844 2.798-2.1 6.182-.986 9.09h-51.198c-1.382 0-2.104-.8-2.468-1.471-.362-.671-.637-1.714.121-2.872l3.747-5.727c3.023-4.622 1.729-10.819-2.894-13.843-4.621-3.024-10.819-1.728-13.843 2.893l-3.747 5.727c-4.591 7.017-4.966 15.959-.978 23.335s11.675 11.958 20.061 11.958h51.198c-1.114 2.908-.858 6.292.986 9.09 1.923 2.916 5.109 4.497 8.359 4.497 1.889 0 3.799-.534 5.494-1.652l20.611-13.587c2.807-1.85 4.496-4.987 4.496-8.349.002-3.361-1.687-6.499-4.494-8.349z"/><path d="m198.781 334.913c1.702 1.185 3.7 1.794 5.716 1.794 1.251 0 2.509-.235 3.705-.712l22.929-9.149c5.13-2.047 7.629-7.865 5.582-12.994-1.437-3.6-4.73-5.904-8.34-6.251l25.279-38.631c.724-1.105 1.782-1.27 2.349-1.27s1.625.165 2.349 1.27l.592.904c3.024 4.621 9.223 5.916 13.843 2.892 4.621-3.024 5.916-9.222 2.892-13.844l-.592-.904c-4.228-6.46-11.362-10.318-19.083-10.318s-14.855 3.857-19.084 10.318l-24.394 37.279c-1.771-1.945-4.302-3.193-7.139-3.266-5.548-.158-10.111 4.22-10.253 9.741l-.631 24.678c-.088 3.363 1.522 6.542 4.28 8.463z"/><path d="m435.708 460.241-21.763-416.765c-.009-.16-.021-.32-.036-.48-2.469-24.512-22.916-42.996-47.564-42.996-7.159 0-13.547 2.995-18.472 8.66-9.525 10.956-13.814 32.349-13.115 65.398.463 21.853 2.999 40.996 3.344 43.511.501 5.806-1.395 11.342-5.216 15.217-1.484 1.505-3.145 2.763-8.442 2.904-1.586.042-2.407-.03-2.766-.08-.246-.2-.614-.52-.926-.791-1.344-1.168-3.185-2.769-6.079-4.615-11.986-7.651-27.669-7.601-39.951.124-5.592 3.517-12.065 5.376-18.722 5.376-6.656 0-13.13-1.859-18.722-5.376-12.284-7.726-27.967-7.774-39.95-.125-2.895 1.848-4.736 3.448-6.08 4.616-.312.271-.68.591-.926.791-.358.05-1.18.122-2.766.08-5.298-.141-6.958-1.399-8.442-2.904-3.826-3.879-5.721-9.424-5.214-15.238.317-2.398 2.783-21.68 3.168-43.671.58-33.127-3.751-54.51-13.243-65.372-4.861-5.564-11.144-8.505-18.17-8.505-24.649 0-45.096 18.484-47.565 42.996-.016.16-.027.32-.036.48l-21.762 416.758c-.719 13.603 4.05 26.538 13.427 36.424 9.384 9.894 22.063 15.342 35.703 15.342h261.156c13.64 0 26.319-5.448 35.703-15.341 9.377-9.886 14.146-22.822 13.427-36.418zm-27.936 22.654c-5.57 5.872-13.097 9.105-21.193 9.105h-261.157c-8.097 0-15.623-3.234-21.193-9.105-5.563-5.864-8.391-13.537-7.964-21.611l21.749-416.507c1.535-14.142 13.38-24.777 27.641-24.777.837 0 1.768.128 3.108 1.663 10.692 12.231 9.528 61.997 5.287 93.428-.018.129-.032.261-.045.391-1.122 11.781 2.84 23.207 10.868 31.347 5.787 5.869 12.618 8.6 22.149 8.854 8.857.23 12.635-1.674 17.348-5.772 1.064-.924 2.067-1.797 3.716-2.849 5.582-3.562 12.688-3.488 18.543.195 8.786 5.525 18.941 8.446 29.37 8.446s20.585-2.921 29.37-8.447c5.857-3.684 12.961-3.757 18.544-.194 1.647 1.051 2.651 1.924 3.715 2.849 4.714 4.098 8.514 6.003 17.348 5.772 9.531-.254 16.362-2.985 22.149-8.854 8.028-8.141 11.99-19.566 10.868-31.348-.014-.147-.031-.295-.052-.442-4.384-31.284-5.724-80.9 5.025-93.26 1.429-1.643 2.451-1.78 3.377-1.78 14.262 0 26.107 10.635 27.642 24.777l21.749 416.513c.428 8.069-2.4 15.742-7.962 21.606z"/></g></g></svg>