<svg id="Capa_1" enable-background="new 0 0 512.012 512.012" height="512" viewBox="0 0 512.012 512.012" width="512" xmlns="http://www.w3.org/2000/svg"><g><g><path d="m502.152 300.094c-12.574-15.346-33.726-19.987-51.438-11.286l-95.321 46.817v-5.085c0-27.132-21.774-49.205-48.538-49.205h-134.935c-2.18 0-4.299.712-6.037 2.027l-44.396 33.619v-17.061c0-5.522-4.477-10-10-10h-101.487c-5.523 0-10 4.478-10 10v122.748c0 5.523 4.477 10 10 10h101.487c5.523 0 10-4.477 10-10v-11.678l151.122 42.642c4.987 1.489 10.11 2.229 15.218 2.228 7.802 0 15.57-1.724 22.753-5.131l176.614-83.762c12.08-5.645 20.721-16.414 23.708-29.548 3.014-13.256-.175-26.86-8.75-37.325zm-400.665 112.574h-81.487v-102.748h81.487zm389.912-79.683c-1.608 7.069-6.227 12.852-12.724 15.888l-176.665 83.785c-7.429 3.522-15.857 4.16-23.73 1.794-.054-.016-.107-.032-.162-.047l-156.63-44.196v-48.141l53.792-40.733h131.576c15.736 0 28.538 13.102 28.538 29.205v11.138h-71.329c-5.523 0-10 4.478-10 10 0 5.523 4.477 10 10 10h81.346c.007.001.013 0 .018 0h.019c1.635-.009 3.176-.409 4.536-1.113l109.549-53.806c9.331-4.582 20.496-2.111 27.15 6.011 4.632 5.654 6.352 13.022 4.716 20.215z" fill="#020288"/></g><g><g><g><g><path d="m335.042 87.58c-48.144 48.009-26.803 147.129-26.803 147.129s99.398 21.281 147.542-26.728 26.803-147.129 26.803-147.129-99.398-21.281-147.542 26.728z" fill="#a4fcc4"/></g></g></g><g><g><g><g><path d="m286.92 108.394c41.333 41.218 23.011 126.315 23.011 126.315s-85.337 18.271-126.671-22.947c-41.333-41.218-23.011-126.315-23.011-126.315s85.337-18.27 126.671 22.947z" fill="#a4fcc4"/></g></g></g></g></g></g></svg>