<svg id="Capa_1" enable-background="new 0 0 512 512" height="512" viewBox="0 0 512 512" width="512" xmlns="http://www.w3.org/2000/svg"><g><g fill="#020288"><path d="m261.425 98.582c-3.304-2.135-7.553-2.136-10.859 0-2.461 1.591-60.291 39.543-60.289 88.857.003 43.285 44.56 77.821 57.119 86.694l.912 71.809c.069 5.479 4.533 9.873 9.996 9.873.043 0 .087 0 .13-.001 5.522-.07 9.942-4.604 9.872-10.126l-.934-73.551c15.278-11.297 54.353-44.156 54.35-84.692-.002-49.313-57.835-87.271-60.297-88.863zm5.624 148.047-.379-29.802 17.15-17.149c3.905-3.905 3.905-10.237 0-14.142-3.904-3.905-10.234-3.905-14.143-.001l-3.362 3.362-.318-25.004c-.07-5.479-4.533-9.873-9.997-9.873-.043 0-.086 0-.129.001-5.523.07-9.942 4.604-9.872 10.126l.323 25.385-3.999-3.999c-3.905-3.905-10.237-3.905-14.143 0-3.905 3.905-3.905 10.237 0 14.143l18.505 18.505.386 30.368c-16.33-14.098-36.793-37.296-36.794-61.109-.001-30.788 32.548-58.315 45.717-68.19 13.177 9.882 45.726 37.412 45.728 68.198.002 23.965-19.721 45.955-34.673 59.181z"/><path d="m368.81 57.03h-25.105v-47.03c0-5.523-4.478-10-10-10h-155.41c-5.523 0-10 4.477-10 10v47.03h-25.104c-17.686 0-32.074 14.388-32.074 32.074v390.822c0 17.685 14.388 32.074 32.074 32.074h225.619c17.685 0 32.073-14.388 32.073-32.074v-390.822c0-17.685-14.388-32.074-32.073-32.074zm-180.515-37.03h135.411v37.03h-135.411zm192.588 459.926c0 6.658-5.416 12.074-12.073 12.074h-225.619c-6.658 0-12.074-5.416-12.074-12.074v-390.822c0-6.658 5.416-12.074 12.074-12.074h225.619c6.657 0 12.073 5.416 12.073 12.074z"/></g><g><g><path d="m165.117 300.872h181.766v57.117h-181.766z" fill="#ffbdbc"/></g><g><path d="m165.117 400.883h181.766v57.117h-181.766z" fill="#ffbdbc"/></g></g></g></svg>