<svg id="Capa_1" enable-background="new 0 0 512 512" height="512" viewBox="0 0 512 512" width="512" xmlns="http://www.w3.org/2000/svg"><g><g><g><path d="m435.149 150.627h-70.931v117.986h117.311v-69.156z" fill="#b2f0fb"/></g><g fill="#020288"><path d="m137.054 276.255c1.427.307 17.493 3.646 38.191 3.646 24.938 0 56.596-4.851 77.444-25.698 38.152-38.152 22.729-112.491 22.054-115.637-.826-3.848-3.831-6.853-7.679-7.679-3.147-.677-77.483-16.098-115.637 22.054-38.151 38.152-22.728 112.49-22.053 115.636.827 3.847 3.832 6.852 7.68 7.678zm28.516-109.172c24.757-24.757 73.17-20.345 90.734-17.758 2.587 17.575 6.995 65.982-17.758 90.734-20.135 20.136-55.921 20.976-78.029 19.195l31.918-31.918 28.298-.001c5.523 0 10-4.477 10-10s-4.477-10-10-10l-8.297.001 15.006-15.006c3.905-3.905 3.905-10.237 0-14.143-3.906-3.904-10.236-3.904-14.143 0l-15.005 15.005v-8.295c0-5.523-4.477-10.001-9.999-10.001-.001 0-.001 0-.001 0-5.522 0-10 4.477-10 9.999l-.002 28.299-31.917 31.917c-1.778-22.112-.938-57.895 19.195-78.028z"/><g><path d="m502 335.994h-.313v-67.381c0-5.522-4.478-10-10-10h-117.47v-199.371c0-5.522-4.478-10-10-10h-343.904c-5.523 0-10 4.478-10 10v276.752h-.313c-5.523 0-10 4.478-10 10v52.349c0 5.522 4.477 10 10 10h79.828c5.522 0 10-4.478 10-10s-4.478-10-10-10h-69.828v-32.349h472v32.349h-84.094c-5.523 0-10 4.478-10 10s4.477 10 10 10h94.094c5.522 0 10-4.478 10-10v-52.349c0-5.522-4.478-10-10-10zm-127.781-57.381h107.469v57.376h-107.469zm-343.906 57.381v-266.752h323.904v266.752z"/><path d="m361.22 388.343h-213.292c-5.522 0-10 4.478-10 10s4.478 10 10 10h213.292c5.522 0 10-4.478 10-10 0-5.523-4.478-10-10-10z"/></g></g></g><g><g><g><g><ellipse cx="116.495" cy="415.299" fill="#b2f0fb" rx="47.151" ry="47.459"/></g></g></g><g><g><g><ellipse cx="383.487" cy="415.299" fill="#b2f0fb" rx="47.151" ry="47.459"/></g></g></g></g></g></svg>