<svg id="Capa_1" enable-background="new 0 0 512.027 512.027" height="512" viewBox="0 0 512.027 512.027" width="512" xmlns="http://www.w3.org/2000/svg"><g><g><path d="m411.504 365.771c8.934-3.894 17.301-9.18 24.436-16.277 39.304-39.096 23.399-115.344 22.703-118.57-.83-3.847-3.838-6.849-7.687-7.67-3.24-.693-79.822-16.499-119.092 22.564-11.741 11.68-18.556 26.675-22.32 42.048-9.781-9.719-23.273-15.737-38.15-15.737-29.794 0-54.032 24.134-54.032 53.799v137.484c0 15.763-12.916 28.587-28.792 28.587s-28.792-12.824-28.792-28.587v-233.87c0-5.523-4.477-10-10-10s-10 4.477-10 10v233.871c0 26.791 21.888 48.587 48.792 48.587s48.792-21.796 48.792-48.587v-137.484c0-18.637 15.267-33.799 34.032-33.799 18.311 0 33.291 14.437 34.005 32.452-.004 1.332.005 2.645.027 3.938v73.536c0 .143.004.286.01.428-.506 26.09 3.859 60.79 26.428 83.24 21.454 21.341 54.038 26.304 79.721 26.304 21.328 0 37.9-3.425 39.371-3.739 3.849-.821 6.857-3.823 7.687-7.67.696-3.227 16.601-79.474-22.703-118.57-7.135-7.098-15.502-12.384-24.436-16.278zm-65.536-105.773c25.791-25.656 76.277-20.956 94.261-18.3 2.693 17.896 7.43 67.93-18.394 93.616-16.122 16.036-41.892 20.213-63.342 20.442-1.413-.016-2.807-.017-4.18-.004-5.024-.062-9.742-.324-13.96-.674l33.457-33.28 29.377-.002c5.523 0 10-4.478 9.999-10.001 0-5.522-4.477-9.999-10-9.999h-9.268l15.947-15.863c3.915-3.895 3.933-10.227.038-14.143-3.896-3.913-10.227-3.933-14.142-.037l-16.076 15.991.001-9.272c.001-5.523-4.476-10.001-9.999-10.001 0 0 0 0-.001 0-5.522 0-9.999 4.477-10 9.999l-.002 29.169-33.559 33.381c-1.909-22.697-1.225-60.065 19.843-81.022zm94.25 229.847c-18.003 2.659-68.466 7.347-94.25-18.301-21.069-20.957-21.752-58.328-19.842-81.024l33.559 33.381.002 29.169c.001 5.522 4.478 9.999 10.001 9.999s10-4.478 9.999-10.001l-.001-9.271 16.076 15.991c1.951 1.94 4.501 2.91 7.052 2.91 2.568 0 5.136-.983 7.09-2.947 3.895-3.916 3.878-10.248-.038-14.143l-15.948-15.864h9.269c5.523 0 10-4.477 10-10 0-5.522-4.477-10-9.999-10l-29.376-.001-33.458-33.281c4.225-.351 8.953-.613 13.986-.674.622.006 1.248.009 1.878.009.743 0 1.491-.004 2.245-.013 21.456.225 47.242 4.399 63.371 20.443 25.74 25.604 21.053 75.707 18.384 93.618z" fill="#020288"/></g><g><g><g><path d="m73.166 0h47.473v70.022h-47.473z" fill="#e2c4ff"/></g><g><path d="m178.914 0h47.473v70.022h-47.473z" fill="#e2c4ff"/></g><path d="m49.622 70.022v68.417c0 45.744 30.749 84.306 72.705 96.146v38.978h58.736v-40.145c39.981-13.05 68.869-50.641 68.869-94.979v-68.417z" fill="#e2c4ff"/></g></g></g></svg>