<svg id="Capa_1" enable-background="new 0 0 512 512" height="512" viewBox="0 0 512 512" width="512" xmlns="http://www.w3.org/2000/svg"><g><g><g><path d="m253.324 391.6h88.685c10.703 0 20.59-5.725 25.919-15.009l47.153-82.206c5.288-9.217 5.279-20.544-.014-29.757l-25.855-44.971 10.495-6.029c3.929-2.265 5.284-7.285 3.023-11.218-1.086-1.882-2.874-3.261-4.974-3.829l-67.733-18.293c-4.378-1.183-8.889 1.41-10.067 5.789l-18.147 67.21c-.564 2.101-.272 4.347.809 6.234l.191.332c2.261 3.929 7.28 5.285 11.209 3.024l10.486-6.025 26.278 60.108h-97.076" fill="#a4fcc4"/></g><g><path d="m141.166 188.102-44.234 76.945c-5.315 9.245-5.298 20.621.041 29.852l49.708 85.898c3.87 6.689 11.008 10.808 18.739 10.808h55.984v12.091c0 4.533 3.674 8.211 8.208 8.211h.008c2.178 0 4.265-.868 5.807-2.405l49.604-49.604c3.206-3.206 3.206-8.408 0-11.614l-31.334-31.324-17.893-17.902c-1.541-1.541-3.628-2.405-5.806-2.405h-.387c-4.534 0-8.212 3.674-8.212 8.211v12.096h-59.931l44.225-91.337" fill="#a4fcc4"/></g><g><path d="m373.317 191.98-44.202-76.9c-5.334-9.27-15.21-14.987-25.905-14.987h-94.588c-10.767 0-20.703 5.794-26.005 15.17l-25.54 45.157-10.49-6.025c-3.929-2.261-8.948-.906-11.209 3.023l-.004.009c-1.083 1.887-1.378 4.129-.81 6.235l6.603 24.44 11.681 43.279c1.183 4.378 5.689 6.97 10.068 5.788l67.219-18.143c2.105-.568 3.896-1.946 4.979-3.838l.191-.327c2.261-3.933.904-8.953-3.028-11.209l-10.49-6.029 34.951-46.416c21.949 28.43 51.666 77.645 51.666 77.645" fill="#a4fcc4"/></g></g><g><path d="m256 512c-68.38 0-132.667-26.628-181.019-74.981-48.353-48.352-74.981-112.639-74.981-181.019s26.628-132.667 74.981-181.019c48.352-48.353 112.639-74.981 181.019-74.981s132.667 26.628 181.02 74.981c48.351 48.352 74.98 112.639 74.98 181.019s-26.629 132.667-74.98 181.019c-48.353 48.353-112.64 74.981-181.02 74.981zm0-492c-130.131 0-236 105.869-236 236s105.869 236 236 236 236-105.869 236-236-105.869-236-236-236z" fill="#020288"/></g></g></svg>